<svg width="24" height="25" viewBox="0 0 24 25" fill="none" xmlns="http://www.w3.org/2000/svg">
<path d="M3 22.2776H21" stroke="#888888" stroke-width="1.5" stroke-linecap="round" stroke-linejoin="round"/>
<path d="M5.59998 8.65771H4C3.45 8.65771 3 9.10771 3 9.65771V18.2777C3 18.8277 3.45 19.2777 4 19.2777H5.59998C6.14998 19.2777 6.59998 18.8277 6.59998 18.2777V9.65771C6.59998 9.10771 6.14998 8.65771 5.59998 8.65771Z" stroke="#888888" stroke-width="1.5" stroke-linecap="round" stroke-linejoin="round"/>
<path d="M12.7999 5.46753H11.2C10.65 5.46753 10.2 5.91753 10.2 6.46753V18.2775C10.2 18.8275 10.65 19.2775 11.2 19.2775H12.7999C13.3499 19.2775 13.7999 18.8275 13.7999 18.2775V6.46753C13.7999 5.91753 13.3499 5.46753 12.7999 5.46753Z" stroke="#888888" stroke-width="1.5" stroke-linecap="round" stroke-linejoin="round"/>
<path d="M19.9999 2.27759H18.3999C17.8499 2.27759 17.3999 2.72759 17.3999 3.27759V18.2776C17.3999 18.8276 17.8499 19.2776 18.3999 19.2776H19.9999C20.5499 19.2776 20.9999 18.8276 20.9999 18.2776V3.27759C20.9999 2.72759 20.5499 2.27759 19.9999 2.27759Z" stroke="#888888" stroke-width="1.5" stroke-linecap="round" stroke-linejoin="round"/>
</svg>
