<svg xmlns="http://www.w3.org/2000/svg" viewBox="0 0 512 512" id="employee-search">
  <path d="M337.79 91.39c-67.93-67.93-178.47-67.93-246.4 0a174.23 174.23 0 0 0 246.4 246.4 174.23 174.23 0 0 0 0-246.4Zm-10.6 235.79a159.24 159.24 0 1 1 46.63-112.59 158.2 158.2 0 0 1-46.63 112.59Zm172 110.33L433.68 372a23.19 23.19 0 0 0-26.63-4.41l-22.19-22.19c64.7-84.12 58.55-205.57-18.46-282.59-83.71-83.7-219.91-83.7-303.62 0a214.72 214.72 0 0 0 282.6 322.09l22.19 22.19a23.23 23.23 0 0 0 4.4 26.62l65.54 65.54a43.64 43.64 0 0 0 61.71-61.71ZM341.29 369l-.2.18a199.61 199.61 0 1 1 14.7-295.74c77.86 77.86 77.86 204.54 0 282.4q-6.98 6.93-14.5 13.16Zm15.71 6.26c3.21-2.86 6.36-5.8 9.42-8.86s6-6.22 8.85-9.42l20.3 20.3-18.27 18.27Zm131.61 113.35a28.62 28.62 0 0 1-40.49 0l-65.54-65.54a8.22 8.22 0 0 1 0-11.61l28.88-28.87a8.21 8.21 0 0 1 11.6 0l65.54 65.54a28.62 28.62 0 0 1 0 40.49ZM257.45 231.19l-14.22-2.7a49.45 49.45 0 0 0 20.84-40.31v-61.45c0-13.39-11-22.72-20.82-22.72h-70.64a7.5 7.5 0 0 0-7.5 7.5v21.38a20.69 20.69 0 0 0 3.8 11.94 16.66 16.66 0 0 0-3.8 10.59v32.76A49.45 49.45 0 0 0 186 228.49l-14.22 2.7A55.17 55.17 0 0 0 127 285.31v14.47a25.42 25.42 0 0 0 25.39 25.39h124.5a25.42 25.42 0 0 0 25.39-25.39v-14.47a55.16 55.16 0 0 0-44.83-54.12ZM180.11 119h63.14c2.72 0 5.82 4.11 5.82 7.72v12.06a16.37 16.37 0 0 0-1.72-.09h-61.42a5.82 5.82 0 0 1-5.82-5.81Zm0 69.17v-32.75a1.73 1.73 0 0 1 1.72-1.72h65.52a1.73 1.73 0 0 1 1.72 1.72v32.76a34.53 34.53 0 0 1-19.54 31.07 7.1 7.1 0 0 0-1 .46 34.46 34.46 0 0 1-48.41-31.53Zm44.54 48.45v4.24a10.06 10.06 0 1 1-20.11 0v-4.24a49.59 49.59 0 0 0 20.11 0Zm62.58 63.15a10.4 10.4 0 0 1-10.39 10.39h-124.5A10.41 10.41 0 0 1 142 299.78v-14.47a40.14 40.14 0 0 1 32.59-39.38l15.1-2.88a25 25 0 0 0 49.9 0l15.1 2.88a40.14 40.14 0 0 1 32.59 39.38Z"></path>
</svg>
