<svg width="24" height="25" viewBox="0 0 24 25" fill="none" xmlns="http://www.w3.org/2000/svg">
<path d="M15.58 12.9756C15.58 14.9556 13.98 16.5556 12 16.5556C10.02 16.5556 8.42004 14.9556 8.42004 12.9756C8.42004 10.9956 10.02 9.39561 12 9.39561C13.98 9.39561 15.58 10.9956 15.58 12.9756Z" stroke="#888888" stroke-width="1.5" stroke-linecap="round" stroke-linejoin="round"/>
<path d="M12 21.2456C15.53 21.2456 18.82 19.1656 21.11 15.5656C22.01 14.1556 22.01 11.7856 21.11 10.3756C18.82 6.77562 15.53 4.69562 12 4.69562C8.46997 4.69562 5.17997 6.77562 2.88997 10.3756C1.98997 11.7856 1.98997 14.1556 2.88997 15.5656C5.17997 19.1656 8.46997 21.2456 12 21.2456Z" stroke="#888888" stroke-width="1.5" stroke-linecap="round" stroke-linejoin="round"/>
</svg>
