<svg width="25" height="25" viewBox="0 0 25 25" fill="none" xmlns="http://www.w3.org/2000/svg">
<path fill-rule="evenodd" clip-rule="evenodd" d="M24.02 13.2484C24.02 12.3975 23.9436 11.5793 23.8018 10.7938H12.5V15.4356H18.9582C18.68 16.9356 17.8345 18.2066 16.5636 19.0575V22.0684H20.4418C22.7109 19.9793 24.02 16.9029 24.02 13.2484Z" fill="#4285F4"/>
<path fill-rule="evenodd" clip-rule="evenodd" d="M12.5 24.9756C15.74 24.9756 18.4564 23.9011 20.4418 22.0683L16.5636 19.0574C15.4891 19.7774 14.1145 20.2029 12.5 20.2029C9.37455 20.2029 6.72909 18.092 5.78546 15.2556H1.77637V18.3647C3.75091 22.2865 7.80909 24.9756 12.5 24.9756Z" fill="#34A853"/>
<path fill-rule="evenodd" clip-rule="evenodd" d="M5.78545 15.2556C5.54545 14.5356 5.40909 13.7665 5.40909 12.9756C5.40909 12.1847 5.54545 11.4156 5.78545 10.6956V7.58655H1.77636C0.963636 9.20655 0.5 11.0393 0.5 12.9756C0.5 14.912 0.963636 16.7447 1.77636 18.3647L5.78545 15.2556Z" fill="#FBBC05"/>
<path fill-rule="evenodd" clip-rule="evenodd" d="M12.5 5.74834C14.2618 5.74834 15.8436 6.3538 17.0873 7.54289L20.5291 4.10107C18.4509 2.16471 15.7345 0.975616 12.5 0.975616C7.80909 0.975616 3.75091 3.66471 1.77637 7.58653L5.78546 10.6956C6.72909 7.85925 9.37455 5.74834 12.5 5.74834Z" fill="#EA4335"/>
</svg>
