<svg width="24" height="25" viewBox="0 0 24 25" fill="none" xmlns="http://www.w3.org/2000/svg">
<path d="M20.86 8.64768L13.93 3.10768C12.86 2.24768 11.13 2.24768 10.07 3.09768L3.14002 8.64768C2.36002 9.26768 1.86002 10.5777 2.03002 11.5577L3.36002 19.5177C3.60002 20.9377 4.96002 22.0877 6.40002 22.0877H17.6C19.03 22.0877 20.4 20.9277 20.64 19.5177L21.97 11.5577C22.13 10.5777 21.63 9.26768 20.86 8.64768ZM12 15.7777C10.62 15.7777 9.50002 14.6577 9.50002 13.2777C9.50002 11.8977 10.62 10.7777 12 10.7777C13.38 10.7777 14.5 11.8977 14.5 13.2777C14.5 14.6577 13.38 15.7777 12 15.7777Z" fill="#A51CD6"/>
</svg>
